<svg xmlns="http://www.w3.org/2000/svg" viewBox="0 0 461.76 386.51"><defs><style>.a,.aa,.ab,.ad,.af,.ag,.b,.e,.s{fill:none;}.a,.b{stroke:#e2dbd5;}.a,.ad,.ag,.b,.e{stroke-miterlimit:10;}.a{stroke-width:0.99px;}.b{stroke-width:1px;}.c{fill:#e2dbd5;}.d{fill:#fff;}.e{stroke:#efe9e4;stroke-width:1.02px;}.f{fill:#5581e1;}.g{fill:#eab356;}.h{fill:#e07f49;}.i{fill:#2e353a;}.j{fill:#e6dfda;}.k{fill:#365fcc;}.l{fill:#5d5d5d;}.m{fill:#18181b;opacity:0.5;}.n{fill:#474747;}.o{fill:#f7e4ac;}.p{fill:#eac1a4;}.q{fill:#cb9180;}.r{fill:#1f2326;}.af,.s{stroke:#cb9180;}.aa,.ab,.af,.s{stroke-linecap:round;stroke-linejoin:round;}.s{stroke-width:0.68px;}.t{fill:#dbaa8c;}.u{fill:#060606;}.v{fill:#c26632;}.w{fill:#d9aa8e;}.x{fill:#e8bfa2;}.y{fill:#d19780;}.z{fill:#74aef2;}.aa{stroke:#d19780;stroke-width:0.68px;}.ab{stroke:#cd9380;stroke-width:0.67px;}.ac{fill:#e9bda0;}.ad{stroke:#5b9a80;stroke-width:0.56px;}.ae{fill:#e2b99c;}.af{stroke-width:0.66px;}.ag{stroke:#d89b40;stroke-width:0.71px;}</style></defs><polygon class="a" points="20.83 265.05 57.33 265.05 49.02 292.48 29.89 292.48 20.83 265.05"/><line class="a" x1="22.05" y1="268.74" x2="56.21" y2="268.74"/><path class="a" d="M47.32,322.34s-6.16-33.63,7.31-58.47c0,0,9.76,13.51,3.59,58.47" transform="translate(-13.76 -57.29)"/><path class="a" d="M46.81,318.46S43,308.6,14.56,299.09c0,0,3.75,10.7,25.26,23.25" transform="translate(-13.76 -57.29)"/><path class="a" d="M58.63,317.86a43.57,43.57,0,0,1,31.95-18.77s-7.35,10.28-24.36,23.25" transform="translate(-13.76 -57.29)"/><path class="a" d="M45.92,305.72S40,288.56,28.8,278c0,0,3.33,17.71,11.9,33.9" transform="translate(-13.76 -57.29)"/><path class="a" d="M59.83,301.5s8.25-15.3,19.44-25.89c0,0-4.25,14.22-11.09,31.93" transform="translate(-13.76 -57.29)"/><line class="b" x1="0.39" y1="292.32" x2="461.76" y2="292.32"/><circle class="a" cx="410.5" cy="23.83" r="23.34"/><polyline class="a" points="410.5 13.86 410.5 23.83 426.26 23.83"/><line class="a" x1="367.54" y1="183.05" x2="447.71" y2="183.05"/><rect class="a" x="371.22" y="183.05" width="73.98" height="94.47"/><line class="a" x1="371.22" y1="215.34" x2="445.2" y2="215.34"/><line class="a" x1="371.22" y1="245.77" x2="445.2" y2="245.77"/><line class="a" x1="401.92" y1="199.86" x2="413.2" y2="199.86"/><line class="a" x1="401.92" y1="230.28" x2="413.2" y2="230.28"/><line class="a" x1="401.92" y1="260.71" x2="413.2" y2="260.71"/><circle class="a" cx="378.19" cy="287.79" r="4.61"/><line class="a" x1="378.19" y1="283.18" x2="378.19" y2="277.52"/><circle class="a" cx="438.33" cy="287.79" r="4.61"/><line class="a" x1="438.33" y1="283.18" x2="438.33" y2="277.52"/><rect class="c" x="66.61" y="68.99" width="284.39" height="176.28" transform="translate(403.83 256.97) rotate(180)"/><rect class="d" x="71.49" y="64.1" width="284.39" height="176.28" transform="translate(413.61 247.19) rotate(180)"/><rect class="e" x="84.38" y="75.45" width="258.61" height="153.58" transform="translate(413.61 247.19) rotate(180)"/><rect class="f" x="199.01" y="83.48" width="11.15" height="32.96"/><rect class="f" x="218.73" y="69.56" width="11.15" height="46.89"/><rect class="f" x="238.44" y="59.81" width="11.15" height="56.63"/><rect class="g" x="258.16" y="96.23" width="11.15" height="20.22"/><rect class="h" x="277.88" y="88.13" width="11.15" height="28.31"/><path class="i" d="M323.14,175H192a1.06,1.06,0,0,1-1.06-1.06V107.64a1.06,1.06,0,0,1,2.11,0v65.21H323.14a1.06,1.06,0,0,1,0,2.11Z" transform="translate(-13.76 -57.29)"/><rect class="c" x="178.18" y="124.53" width="131.2" height="4.9" rx="2.45"/><path class="c" d="M272.72,196.27H194.4a2.45,2.45,0,0,1-2.45-2.45h0a2.44,2.44,0,0,1,2.45-2.45h78.32a2.45,2.45,0,0,1,2.46,2.45h0A2.46,2.46,0,0,1,272.72,196.27Z" transform="translate(-13.76 -57.29)"/><path class="f" d="M136.79,113.52a29.91,29.91,0,0,0-16.5,4.93l16.5,24.06-3.68,30.94h0a30.08,30.08,0,1,0,3.68-59.93Z" transform="translate(-13.76 -57.29)"/><path class="h" d="M106.71,143.6a30,30,0,0,0,6.21,18.3l23.87-19.39-16.5-24.06a30,30,0,0,0-13.58,25.15Z" transform="translate(-13.76 -57.29)"/><path class="g" d="M112.7,161.61l.22.29a30,30,0,0,0,20.19,11.55l3.68-30.94Z" transform="translate(-13.76 -57.29)"/><rect class="c" x="100.14" y="125.36" width="47" height="4.9" rx="2.45"/><path class="c" d="M134.58,197.1H116.36a2.46,2.46,0,0,1-2.46-2.46h0a2.46,2.46,0,0,1,2.46-2.45h18.22a2.45,2.45,0,0,1,2.45,2.45h0A2.46,2.46,0,0,1,134.58,197.1Z" transform="translate(-13.76 -57.29)"/><path class="j" d="M72.16,387c0,2.63,28,4.77,62.58,4.77s62.59-2.14,62.59-4.77-28-4.78-62.59-4.78S72.16,384.4,72.16,387Z" transform="translate(-13.76 -57.29)"/><rect class="k" x="71.46" y="221.2" width="56.33" height="53.61" rx="8.71"/><rect class="k" x="76.63" y="221.2" width="56.33" height="53.61" rx="8.71"/><path class="l" d="M101.08,383.48a2.38,2.38,0,0,1-2.51,2.21h0a2.38,2.38,0,0,1-2.51-2.21V361.55a2.38,2.38,0,0,1,2.51-2.21h0a2.38,2.38,0,0,1,2.51,2.21Z" transform="translate(-13.76 -57.29)"/><path class="m" d="M101.08,363.18v-1.63a2.53,2.53,0,0,0-5,0v1.82C97.73,363.23,99.4,363.18,101.08,363.18Z" transform="translate(-13.76 -57.29)"/><path class="l" d="M164.19,383.48a2.37,2.37,0,0,1-2.5,2.21h0a2.37,2.37,0,0,1-2.51-2.21V361.55a2.37,2.37,0,0,1,2.51-2.21h0a2.37,2.37,0,0,1,2.5,2.21Z" transform="translate(-13.76 -57.29)"/><path class="m" d="M164.19,363.18v-1.63a2.52,2.52,0,0,0-5,0v1.82C160.85,363.23,162.52,363.18,164.19,363.18Z" transform="translate(-13.76 -57.29)"/><path class="n" d="M89.39,382.87A2.31,2.31,0,0,1,87,385h0a2.31,2.31,0,0,1-2.44-2.15V361.5A2.31,2.31,0,0,1,87,359.34h0a2.31,2.31,0,0,1,2.44,2.16Z" transform="translate(-13.76 -57.29)"/><path class="m" d="M89.39,363.09V361.5a2.46,2.46,0,0,0-4.88,0v1.77C86.13,363.13,87.76,363.09,89.39,363.09Z" transform="translate(-13.76 -57.29)"/><path class="n" d="M150.9,382.87a2.31,2.31,0,0,1-2.44,2.15h0a2.31,2.31,0,0,1-2.44-2.15V361.5a2.31,2.31,0,0,1,2.44-2.16h0a2.31,2.31,0,0,1,2.44,2.16Z" transform="translate(-13.76 -57.29)"/><path class="m" d="M150.9,363.09V361.5a2.46,2.46,0,0,0-4.88,0v1.77C147.64,363.13,149.27,363.09,150.9,363.09Z" transform="translate(-13.76 -57.29)"/><path class="o" d="M169.48,357.93a3.85,3.85,0,0,1-3.85,3.85h0a3.85,3.85,0,0,1-3.85-3.85V306.05a3.85,3.85,0,0,1,3.85-3.85h0a3.85,3.85,0,0,1,3.85,3.85Z" transform="translate(-13.76 -57.29)"/><rect class="f" x="132.05" y="241.14" width="24.14" height="63.69" rx="6.16"/><rect class="k" x="132.05" y="241.14" width="18.42" height="63.69" rx="6.16"/><rect class="f" x="74.12" y="270.94" width="81.67" height="33.9" rx="6.16"/><path class="p" d="M106.25,244.21c.09.43.61,15.23.61,15.23s-13-1.86-13-2.42S92,242.75,92,242.75Z" transform="translate(-13.76 -57.29)"/><path class="q" d="M106.41,247.49s-5,1.75-7.81.14c0,0,.49,3.5,8,4.68Z" transform="translate(-13.76 -57.29)"/><path class="p" d="M111,234.36a1.15,1.15,0,0,0,0-2.1l-2.28-1A64.58,64.58,0,0,0,103,222l-14,8.81,9.85,20.81,9.5-5.23a6.86,6.86,0,0,0,3.24-5.72,20.46,20.46,0,0,0-1.41-6Z" transform="translate(-13.76 -57.29)"/><path class="r" d="M105.12,214.62s-4.35-4.4-10.55,0a19.72,19.72,0,0,0-5.83,6.24,3.16,3.16,0,0,1-1.45.32c-4.88-.28-9.29,6.19-5.21,10.75-1.26,1.92-2.29,4.51-1.11,7,2.27,4.83,9.51,8.46,11.13,14.14,0,0,10.45-7.54,5.62-12s-1.93-3.17-1.93-3.17l2.55,1.07a10.48,10.48,0,0,0-4.21-10.43S112.08,225.41,105.12,214.62Z" transform="translate(-13.76 -57.29)"/><path class="p" d="M98.79,237.93a3.64,3.64,0,1,1-4.63-2.25A3.64,3.64,0,0,1,98.79,237.93Z" transform="translate(-13.76 -57.29)"/><path class="s" d="M94,238s3.29-1.39,3.56,2" transform="translate(-13.76 -57.29)"/><path class="s" d="M96.45,238s-1.67.24-1.1,2.21" transform="translate(-13.76 -57.29)"/><path class="r" d="M107.09,231.19a.86.86,0,0,1-.82.89.86.86,0,1,1-.07-1.71A.86.86,0,0,1,107.09,231.19Z" transform="translate(-13.76 -57.29)"/><path class="r" d="M103,230.76a.67.67,0,0,0,.12-.06l2.82-1.93a.78.78,0,0,0,.16-1.06.68.68,0,0,0-1-.28l-2.82,1.93a.78.78,0,0,0-.16,1.06A.7.7,0,0,0,103,230.76Z" transform="translate(-13.76 -57.29)"/><path class="s" d="M110.84,236.82a2.79,2.79,0,0,1-3.08,1.37" transform="translate(-13.76 -57.29)"/><polygon class="p" points="77.22 199.51 81.06 197.87 94.12 201.87 86.58 214.17 77.22 199.51"/><path class="t" d="M120.76,280.39s12.52,16.18,16.18,15.86c1.29-.11,28.9,3.34,28.9,3.34l-4.63-4-19.84-7.13-10.72-13.67Z" transform="translate(-13.76 -57.29)"/><path class="i" d="M71.72,284s.33-18.14,3.41-20.06,17.15-7.71,17.15-7.71,6.71,12.15,15.6,2.89c0,0,15.6,3.85,17.91,6.17s9.61,11.29,9.61,11.29l-11.72,9.12L122.33,284,121.94,296l-8.09,9.25-25.51-6-2.61-14Z" transform="translate(-13.76 -57.29)"/><path class="p" d="M74.15,284l14,.7,1.06,8.17s21.51-6,27.74-4.23c7.71,2.12,8.09,6.16,8.09,6.16l-11.94-1.93s-11.94,12.72-32.36,7.71C80.7,300.62,74.53,299.07,74.15,284Z" transform="translate(-13.76 -57.29)"/><polygon class="d" points="142.73 254.23 161.5 254.87 163.06 245.6 137.57 242.86 142.73 254.23"/><path class="h" d="M95,320.65s12.72-30,22-29.28,43.15,7.71,48.93,7.71c0,0,3.85,10.79-.39,14.25l-41.6-3.85s43,2.52,42.76,9.25c-.39,10-1.93,51.23-1.93,51.23l-13.1,2.31s-5.39-27.73-1.54-43.53l-52.78,1.54Z" transform="translate(-13.76 -57.29)"/><path class="i" d="M173.26,313.5a.4.4,0,0,1-.15-.71c1-.69,2.52-2.29,2.87-5.62.4-3.94-2.33-4.36-2.33-4.36l6.63-11.18,0-.05a7.72,7.72,0,0,1,5.41-3.49l.64-.1-6.68,27.09Z" transform="translate(-13.76 -57.29)"/><rect class="u" x="170.08" y="300.73" width="27.89" height="2.11" transform="translate(-166.81 350.91) rotate(-76.15)"/><polygon class="d" points="139.3 306.67 140.12 324.6 149.02 323.47 149.28 297.39 139.3 306.67"/><path class="v" d="M142.32,311.19l5.46.51c-11.4-1.51-22.39-3-22.39-3s-6.78,15.32-16.21,21.23l40.86-1.2c-3.85,15.8,1.54,43.53,1.54,43.53l13.1-2.31s1.54-41.22,1.93-51.23C166.75,315.05,154,312.63,142.32,311.19Z" transform="translate(-13.76 -57.29)"/><path class="i" d="M152.66,378a.4.4,0,0,1,.65-.31c.91.78,2.83,1.89,6.14,1.43,3.93-.55,3.68-3.3,3.68-3.3l12.45,3.75,0,0a7.7,7.7,0,0,1,4.68,4.41l.25.6h-27.9Z" transform="translate(-13.76 -57.29)"/><rect class="u" x="138.9" y="327.3" width="27.89" height="2.11"/><path class="p" d="M113.06,292.91s-1.41,6.07,3.35,7.24,8-.37,8.59-5.31-11.62-3.48-11.62-3.48Z" transform="translate(-13.76 -57.29)"/><rect class="f" x="68.78" y="241.14" width="24.14" height="63.69" rx="6.16"/><rect class="k" x="62.82" y="241.14" width="24.14" height="63.69" rx="6.16"/><path class="j" d="M230.66,386.85c0,2.64,23.18,4.78,51.77,4.78s51.77-2.14,51.77-4.78-23.18-4.77-51.77-4.77S230.66,384.21,230.66,386.85Z" transform="translate(-13.76 -57.29)"/><path class="o" d="M236,357.75a3.85,3.85,0,0,0,3.85,3.85h0a3.85,3.85,0,0,0,3.85-3.85V305.87a3.85,3.85,0,0,0-3.85-3.86h0a3.85,3.85,0,0,0-3.85,3.86Z" transform="translate(-13.76 -57.29)"/><path class="l" d="M241.33,383.3a2.37,2.37,0,0,0,2.5,2.21h0a2.37,2.37,0,0,0,2.51-2.21V361.37a2.37,2.37,0,0,0-2.51-2.21h0a2.37,2.37,0,0,0-2.5,2.21Z" transform="translate(-13.76 -57.29)"/><path class="m" d="M241.33,363v-1.63a2.52,2.52,0,0,1,5,0v1.82C244.68,363.05,243,363,241.33,363Z" transform="translate(-13.76 -57.29)"/><rect class="f" x="250.5" y="221.02" width="56.33" height="53.61" rx="8.71"/><rect class="k" x="245.33" y="221.02" width="56.33" height="53.61" rx="8.71"/><rect class="f" x="221.8" y="240.96" width="24.14" height="63.69" rx="6.16"/><path class="k" d="M241.29,355.78c0,3.41,3.25,6.17,7.25,6.17h7.17c4,0,7.26-2.76,7.26-6.17V304.42c0-3.41-3.25-6.17-7.26-6.17h-7.17c-4,0-7.25,2.76-7.25,6.17Z" transform="translate(-13.76 -57.29)"/><path class="l" d="M303,383.3a2.38,2.38,0,0,0,2.51,2.21h0A2.38,2.38,0,0,0,308,383.3V361.37a2.38,2.38,0,0,0-2.51-2.21h0a2.38,2.38,0,0,0-2.51,2.21Z" transform="translate(-13.76 -57.29)"/><path class="n" d="M314.68,382.68a2.31,2.31,0,0,0,2.44,2.16h0a2.31,2.31,0,0,0,2.44-2.16V361.31a2.31,2.31,0,0,0-2.44-2.15h0a2.31,2.31,0,0,0-2.44,2.15Z" transform="translate(-13.76 -57.29)"/><path class="n" d="M254.62,382.68a2.31,2.31,0,0,0,2.44,2.16h0a2.31,2.31,0,0,0,2.44-2.16V361.31a2.31,2.31,0,0,0-2.44-2.15h0a2.31,2.31,0,0,0-2.44,2.15Z" transform="translate(-13.76 -57.29)"/><path class="m" d="M254.62,362.9v-1.59a2.46,2.46,0,0,1,4.88,0v1.78C257.88,363,256.25,362.9,254.62,362.9Z" transform="translate(-13.76 -57.29)"/><rect class="f" x="222.2" y="270.75" width="81.67" height="33.9" rx="6.16"/><path class="w" d="M244,315.24,235.24,324a4.16,4.16,0,0,0-.37,5.46l41.3,52.61,4.88-4.64s-15.15-37.71-26.61-43.53l8.45-8.43-10.7-12.8Z" transform="translate(-13.76 -57.29)"/><path class="i" d="M279.82,372.55a.34.34,0,0,0-.61.08,6.44,6.44,0,0,1-3.8,3.89c-3.11,1.42-4.21-.69-4.21-.69l-7.3,8.49,0,0a6.64,6.64,0,0,0-1.36,5.38l.1.54,20.27-12.93Z" transform="translate(-13.76 -57.29)"/><rect class="u" x="261.21" y="383.67" width="24.04" height="1.82" transform="translate(696.64 504.62) rotate(147.47)"/><path class="x" d="M250.81,309.55l-12.42.31a4.16,4.16,0,0,0-4,3.71L228,380.15h6.73s15-37.76,10.72-49.88l25-.76,1.07-16.65Z" transform="translate(-13.76 -57.29)"/><path class="i" d="M270.87,309.45l-20.06.1a37.22,37.22,0,0,1,19.64,20l27.6-1.24s8-9.84-2-19.57Z" transform="translate(-13.76 -57.29)"/><path class="i" d="M236.54,378.63a.34.34,0,0,0-.56-.27,6.39,6.39,0,0,1-5.29,1.24c-3.39-.48-3.18-2.85-3.18-2.85L216.79,380h0a6.62,6.62,0,0,0-4,3.81l-.21.51h24Z" transform="translate(-13.76 -57.29)"/><rect class="u" x="212.5" y="384.32" width="24.04" height="1.82" transform="translate(435.27 713.16) rotate(180)"/><path class="w" d="M249,279.32s2.91-6.76-2.47-9.93l.27,1.79a.23.23,0,0,1-.38.2l-1.35-1.26s-1.78-1.42-2.91-1.08S234,274,246,281Z" transform="translate(-13.76 -57.29)"/><path class="w" d="M268.42,263.29c-9.67-3.76-12.17,26.36-12.17,26.36l-9.51-14.19-3.18,3.2s3.82,18,12.81,23.48c1.13.69,4.44.14,4.93-1.09l7.19-23.41C275.89,265.87,268.42,263.29,268.42,263.29Z" transform="translate(-13.76 -57.29)"/><path class="h" d="M299.57,266c-.79-2-1.89-3.8-3.95-4.32-4-1-11.53-2.49-18.09-1.41a23.17,23.17,0,0,0-14.47,4.26l.77,4.72c-.93,1.86-5.62,12.27,2.31,17.4l.58.35,4.15,25.42,24.16.24S303.89,276.88,299.57,266Z" transform="translate(-13.76 -57.29)"/><path class="r" d="M246,255.68l5.83,15.26a1,1,0,0,1-1,1.3l-6.5-.32a1,1,0,0,1-.84-.59l-6-14.56a1,1,0,0,1,.83-1.33l6.63-.37A1,1,0,0,1,246,255.68Z" transform="translate(-13.76 -57.29)"/><path class="x" d="M297.4,262.38c-9.67-3.76-19.1,26.14-19.1,26.14l-26-14.38-4.15,4.18s20.17,16.94,31.41,22a2.59,2.59,0,0,0,3.22-.94c2.37-3.54,8.05-12.09,14.7-22.68C304.86,265,297.4,262.38,297.4,262.38Z" transform="translate(-13.76 -57.29)"/><path class="x" d="M252.72,277.42s3.42-7.95-2.91-11.67l.33,2.11a.27.27,0,0,1-.45.24l-1.59-1.49s-2.1-1.67-3.42-1.27-9.62,5.85,4.43,14Z" transform="translate(-13.76 -57.29)"/><path class="x" d="M284.08,261l-2.31-14-10.33,1.69,2.3,14.05c.5,3,3,4,5.89,3.56h0C282.49,265.81,284.57,264,284.08,261Z" transform="translate(-13.76 -57.29)"/><path class="y" d="M282.33,244.15s.93,13.25-9.32,14.12L272,251.73Z" transform="translate(-13.76 -57.29)"/><polygon class="x" points="259.56 202.84 261.64 215.67 269.47 207.17 259.56 202.84"/><circle class="r" cx="277.64" cy="164.5" r="9.79"/><path class="z" d="M279.42,229.35a4.88,4.88,0,1,0,4-5.6A4.87,4.87,0,0,0,279.42,229.35Z" transform="translate(-13.76 -57.29)"/><path class="y" d="M259.92,243.94a3.53,3.53,0,1,0,2.95-4A3.54,3.54,0,0,0,259.92,243.94Z" transform="translate(-13.76 -57.29)"/><circle class="r" cx="275.31" cy="236.67" r="14.67" transform="translate(-35.94 387.49) rotate(-75.66)"/><path class="x" d="M272.64,230.42H273a10.47,10.47,0,0,1,10.47,10.47v9.68a4.84,4.84,0,0,1-4.84,4.84H264.88a2.71,2.71,0,0,1-2.71-2.71V240.88A10.46,10.46,0,0,1,272.64,230.42Z" transform="translate(565.8 384.02) rotate(171.22)"/><path class="r" d="M276.6,234.65s.82,5.92,4.84,5.92.73-6.83.73-6.83Z" transform="translate(-13.76 -57.29)"/><circle class="x" cx="283.19" cy="239.93" r="3.53" transform="translate(8.26 446.38) rotate(-85.55)"/><path class="r" d="M262.13,233.22s8.31,7.2,18.47,2.89c0,0,4-1.1,1.39-7S262.67,225.31,262.13,233.22Z" transform="translate(-13.76 -57.29)"/><path class="r" d="M263.29,232.61s-3.57,1.46-1.72,8.83c0,0-5.64-7-3.88-11.08,2.84-6.6,10.91-3.2,10.91-3.2Z" transform="translate(-13.76 -57.29)"/><path class="r" d="M271.21,241.1a.86.86,0,1,0,.64-1A.86.86,0,0,0,271.21,241.1Z" transform="translate(-13.76 -57.29)"/><path class="r" d="M264,242.2a.85.85,0,0,0,1.66-.39.85.85,0,1,0-1.66.39Z" transform="translate(-13.76 -57.29)"/><path class="aa" d="M267.49,242.9l.16,2.48s.35,1.25,2.09.47" transform="translate(-13.76 -57.29)"/><path class="r" d="M273.92,238.08a.41.41,0,0,1-.16,0l-3.84.46a.79.79,0,0,1-.18-1.56l3.84-.45a.78.78,0,0,1,.34,1.52Z" transform="translate(-13.76 -57.29)"/><path class="r" d="M265.2,239.27l-.15,0-2.35.28a.79.79,0,1,1-.18-1.56l2.35-.27a.77.77,0,0,1,.86.68A.78.78,0,0,1,265.2,239.27Z" transform="translate(-13.76 -57.29)"/><path class="d" d="M273,247.14l-6.33,1s.52,2.1,3.6,1.6C273.11,249.32,273,247.14,273,247.14Z" transform="translate(-13.76 -57.29)"/><path class="ab" d="M284.75,238.7s-3.4-.82-3.12,2.51" transform="translate(-13.76 -57.29)"/><path class="ab" d="M282.4,239.14s1.66,0,1.42,2" transform="translate(-13.76 -57.29)"/><rect class="f" x="282.9" y="240.96" width="24.14" height="63.69" rx="6.16"/><rect class="k" x="288.85" y="240.96" width="24.14" height="63.69" rx="6.16"/><ellipse class="j" cx="198.7" cy="381.62" rx="41.51" ry="4.89"/><path class="n" d="M202.4,401.21s-16.16,37.33-14.49,38.17,20.9-37.61,20.9-37.61-.56,38.72,1.67,38.72,3.62-38.72,3.62-38.72,20.8,41.52,22.32,36.22C237,436,220,400.1,220,400.1Z" transform="translate(-13.76 -57.29)"/><path class="m" d="M206.63,406.09c1.34-2.64,2.18-4.32,2.18-4.32s0,1.72-.05,4.42c1.72.08,3.43.16,5.15.26.12-2.85.19-4.68.19-4.68l2.43,4.76c2.35.15,4.18.11,6.53.29L220,400.1l-17.55,1.11s-.79,1.83-2,4.67C202.48,405.93,204.55,406,206.63,406.09Z" transform="translate(-13.76 -57.29)"/><path class="h" d="M171.17,395.84c0,3.81,18.55,6.89,41.44,6.89s41.44-3.08,41.44-6.89S235.49,389,212.61,389,171.17,392,171.17,395.84Z" transform="translate(-13.76 -57.29)"/><rect class="h" x="157.4" y="333.81" width="82.88" height="4.74"/><path class="g" d="M171.17,391.11c0,3.8,18.55,6.88,41.44,6.88s41.44-3.08,41.44-6.88-18.56-6.89-41.44-6.89S171.17,387.3,171.17,391.11Z" transform="translate(-13.76 -57.29)"/><path class="i" d="M195.9,373.64l2.38,17.73a2.49,2.49,0,0,0,2.47,2.15H209a2.49,2.49,0,0,0,2.47-2.19l2.14-17.69Z" transform="translate(-13.76 -57.29)"/><path class="d" d="M182.21,313.84h17.6a1.34,1.34,0,0,1,1.34,1.34v1.33a0,0,0,0,1,0,0H180.87a0,0,0,0,1,0,0v-1.33A1.34,1.34,0,0,1,182.21,313.84Z"/><path class="d" d="M184.56,311.18h12.9a1.16,1.16,0,0,1,1.16,1.16v1.51a0,0,0,0,1,0,0H183.4a0,0,0,0,1,0,0v-1.51A1.16,1.16,0,0,1,184.56,311.18Z"/><circle class="d" cx="191.01" cy="324.94" r="3.75"/><path class="j" d="M340.41,379.06c0,2.63,24.35,4.77,54.38,4.77s54.39-2.14,54.39-4.77-24.35-4.78-54.39-4.78S340.41,376.42,340.41,379.06Z" transform="translate(-13.76 -57.29)"/><polygon class="ac" points="402.75 314.58 393.65 315.42 393.44 299.94 402.54 299.1 402.75 314.58"/><path class="i" d="M406.58,370.17a.37.37,0,0,1,.61-.29,7.13,7.13,0,0,0,5.84,1.36c3.73-.52,3.5-3.14,3.5-3.14l11.83,3.57h0a7.35,7.35,0,0,1,4.46,4.2l.23.56H406.58Z" transform="translate(-13.76 -57.29)"/><rect class="u" x="392.81" y="319.15" width="26.51" height="2"/><polygon class="i" points="406.66 191.4 404.65 307.37 392.31 307.46 389.23 180.81 406.66 191.4"/><path class="ad" d="M418.07,359.76" transform="translate(-13.76 -57.29)"/><polygon class="u" points="404.3 302.75 392.19 302.7 392.19 302.14 404.31 302.19 404.3 302.75"/><rect class="ac" x="372.38" y="356.78" width="9.14" height="15.8" transform="translate(704.79 705.37) rotate(-174.69)"/><polygon class="i" points="368.68 190.95 357.21 307.35 369.76 307.34 386.94 176.36 368.68 190.95"/><path class="i" d="M381.86,370.17a.37.37,0,0,0-.61-.29,7.13,7.13,0,0,1-5.84,1.36c-3.74-.52-3.5-3.14-3.5-3.14l-11.83,3.57h0a7.35,7.35,0,0,0-4.46,4.2l-.23.56h26.51Z" transform="translate(-13.76 -57.29)"/><rect class="u" x="355.35" y="376.44" width="26.51" height="2" transform="translate(723.45 697.6) rotate(180)"/><rect class="u" x="377.72" y="353.34" width="0.56" height="12.59" transform="translate(-0.19 675.71) rotate(-89.27)"/><polygon class="i" points="370.78 170.96 368.68 190.95 406.66 191.4 406.72 171.41 370.78 170.96"/><rect class="u" x="379.1" y="191.12" width="15.3" height="0.56"/><path class="u" d="M420.38,243.53a6.54,6.54,0,0,1-4.58-2.75c-2.58-3.73-1.37-9.7-1.32-9.95l.55.12c0,.05-1.22,6,1.23,9.52a6,6,0,0,0,4.21,2.51Z" transform="translate(-13.76 -57.29)"/><path class="u" d="M383.27,242.31v-.56c6.32-.13,6.35-11.17,6.35-11.28h.56a23.46,23.46,0,0,1-.82,5.81C388.23,240.16,386.14,242.25,383.27,242.31Z" transform="translate(-13.76 -57.29)"/><rect class="u" x="394.8" y="239.76" width="17.32" height="0.56" transform="translate(140.36 580.53) rotate(-88.67)"/><rect class="u" x="390.53" y="239.76" width="17.32" height="0.56" transform="translate(136.2 576.26) rotate(-88.67)"/><polygon class="ae" points="335.74 140.64 345.2 149.74 341.39 156.01 331.39 145.12 335.74 140.64"/><path class="ae" d="M349.5,197.93l0-11.55a1.23,1.23,0,0,0-1-1.21h0a1.25,1.25,0,0,0-1.47.88l-.86,3.15-7.44-8a1.34,1.34,0,0,0-2.17.27l-2.48,4.6a1.35,1.35,0,0,0,0,1.22c1.29,2.67,6.59,13.21,11.13,15.18Z" transform="translate(-13.76 -57.29)"/><path class="g" d="M392.1,178.89s2.51,5.67-9.49,34.44c0,0-6.58,12-9.43,12.35-4.67.6-17.75-6.4-27.69-20.75l7.53-5.58,14.72,8.5,8.63-22.29S381.43,170.7,392.1,178.89Z" transform="translate(-13.76 -57.29)"/><path class="af" d="M343.83,189.22a7.89,7.89,0,0,0-3.08,6.15" transform="translate(-13.76 -57.29)"/><path class="ag" d="M367.74,207.85s2.91,1.4,3.23,6.65" transform="translate(-13.76 -57.29)"/><path class="g" d="M404.35,169.22,424,177.94a3.47,3.47,0,0,1,2,3.6l-5.61,48.68s-18.26,3-36-.64l-4.51-47.31a5,5,0,0,1,1.48-4.16l12.12-9Z" transform="translate(-13.76 -57.29)"/><polyline class="ag" points="393.32 113.54 389.5 122.06 383.5 117.32 377.54 120.23 379.1 112.41"/><path class="ag" d="M397.26,177.61s-.35,11.7-1,15.86c-2.62,17.54,1,30.31,1,30.31" transform="translate(-13.76 -57.29)"/><path class="ag" d="M385,180.91s-3.39,12.18-1.49,28.92" transform="translate(-13.76 -57.29)"/><polygon class="ae" points="389.68 161.99 402.81 161.69 404.57 168.81 389.8 168.23 389.68 161.99"/><path class="ae" d="M403.45,219.28l-8.23-8.11a1.24,1.24,0,0,0-1.55-.16h0a1.24,1.24,0,0,0-.4,1.66l1.62,2.84-7.14-.4a1.34,1.34,0,0,0-1.34,1.73l1.52,5a1.32,1.32,0,0,0,.84.88c2.8,1,10.2,4.64,14.8,2.8Z" transform="translate(-13.76 -57.29)"/><path class="g" d="M424.76,178.4s5.65,2.47,15.83,30.74c0,0,3.85,10.88,2,13-3.08,3.42-18.3,8.65-35.26,4.72l-.21-9.27,18.76-2.85-8.38-21.48S411.35,179.35,424.76,178.4Z" transform="translate(-13.76 -57.29)"/><path class="ag" d="M434.36,216.55c-3.53-3.68-8.52-1.85-8.52-1.85l-8.38-21.48s-5.55-10.27,3-13.86" transform="translate(-13.76 -57.29)"/><path class="ag" d="M420.48,228.7s-10.58.64-13.4,0V217.55l18.76-2.85" transform="translate(-13.76 -57.29)"/><path class="r" d="M384.08,140.09s-3.71,4,.9,10.19l3.8-8.77Z" transform="translate(-13.76 -57.29)"/><polygon class="ae" points="391.32 94.48 379.26 102.81 379.1 112.41 383.5 117.32 393.32 113.54 393.55 99.24 391.32 94.48"/><path class="q" d="M392.89,167.24s11.66,1.89,10.77-13.93l-4,2.28-6.89,7.69Z" transform="translate(-13.76 -57.29)"/><path class="ae" d="M394.11,139.84h.38A10.18,10.18,0,0,1,404.67,150v9.43a4.71,4.71,0,0,1-4.71,4.71h-13.4a2.64,2.64,0,0,1-2.64-2.64V150a10.18,10.18,0,0,1,10.18-10.18Z" transform="translate(754.51 291.44) rotate(-173.33)"/><path class="r" d="M409.41,138.56c-1-6.93-6.55-7.36-8-7.47s-5.54,1.25-7.44-.14-4-4.18-9-3.06c-3.44.77-5.91,5.88-2.47,11,3.2,4.81,17.58,4.41,20.59,4.28-.55,2.19-1.58,7.64,1.09,9.9a9.64,9.64,0,0,0,3.15,5.67C423.21,141,409.41,138.56,409.41,138.56Z" transform="translate(-13.76 -57.29)"/><path class="ae" d="M402.42,151.08a3.67,3.67,0,1,0,4.07-3.22A3.67,3.67,0,0,0,402.42,151.08Z" transform="translate(-13.76 -57.29)"/><path class="r" d="M393.22,149.48a.83.83,0,1,0,.86-.79A.82.82,0,0,0,393.22,149.48Z" transform="translate(-13.76 -57.29)"/><path class="r" d="M386.16,148.64a.83.83,0,0,0,.8.86.83.83,0,0,0,.07-1.66A.84.84,0,0,0,386.16,148.64Z" transform="translate(-13.76 -57.29)"/><path class="af" d="M389.39,149.18l-.6,3.4s0,1.26,1.83,1" transform="translate(-13.76 -57.29)"/><path class="r" d="M396.54,147.35h-.16l-3.72-.57a.76.76,0,1,1,.24-1.5l3.71.57a.76.76,0,0,1-.07,1.51Z" transform="translate(-13.76 -57.29)"/><path class="r" d="M388.05,146.2a.75.75,0,0,1-.15,0l-2.27-.35A.77.77,0,0,1,385,145a.76.76,0,0,1,.87-.64l2.27.35a.77.77,0,0,1,.64.87A.76.76,0,0,1,388.05,146.2Z" transform="translate(-13.76 -57.29)"/><path class="af" d="M407.79,150.55s-3.18-1.34-3.44,1.94" transform="translate(-13.76 -57.29)"/><path class="af" d="M405.43,150.6s1.62.24,1.07,2.14" transform="translate(-13.76 -57.29)"/><path class="r" d="M384.67,152.73a3.82,3.82,0,0,1-.57,0,4.9,4.9,0,1,1,.57,0Zm0-9.49a4.53,4.53,0,1,0,.52,0A4.53,4.53,0,0,0,384.67,143.24Z" transform="translate(-13.76 -57.29)"/><path class="r" d="M395.52,154a3.64,3.64,0,0,1-.57,0,4.9,4.9,0,0,1-3.32-1.84,5,5,0,1,1,3.89,1.88Zm0-9.49a4.54,4.54,0,0,0-3.54,7.35,4.55,4.55,0,0,0,3,1.68,4.53,4.53,0,0,0,4.06-7.32h0a4.43,4.43,0,0,0-3-1.68A4.58,4.58,0,0,0,395.5,144.49Z" transform="translate(-13.76 -57.29)"/><polygon class="r" points="388.73 92.92 386.43 92.48 386.5 92.06 388.8 92.5 388.73 92.92"/><rect class="r" x="389.88" y="147.68" width="0.43" height="1.43" transform="translate(184.15 461.58) rotate(-83.41)"/><path class="af" d="M394.05,155.5s-2,1.59-6.23.17" transform="translate(-13.76 -57.29)"/></svg>